<svg width="500" height="144" viewBox="0 0 500 144" fill="none" xmlns="http://www.w3.org/2000/svg">
<path d="M194.784 27.9238H185.874H175.339V39.8067H185.874V113.12H201.401V27.9238H194.784Z" fill="black"/>
<path d="M229.887 101.241V27.9238H214.364V113.12H220.977H229.887H252.574V101.241H229.887Z" fill="black"/>
<path d="M295.174 27.9238C286.748 27.9222 278.511 30.4194 271.504 35.0995C264.497 39.7796 259.036 46.4325 255.811 54.2167C252.585 62.001 251.741 70.5668 253.384 78.8311C255.027 87.0953 259.084 94.6866 265.042 100.645C270.999 106.603 278.59 110.661 286.854 112.305C295.118 113.949 303.684 113.105 311.469 109.881C319.253 106.656 325.907 101.195 330.588 94.1888C335.268 87.1826 337.766 78.9456 337.766 70.5196C337.766 59.2232 333.278 48.3894 325.291 40.4013C317.304 32.4131 306.47 27.9249 295.174 27.9238ZM295.174 98.1622C289.706 98.163 284.362 96.5424 279.815 93.5055C275.269 90.4686 271.725 86.1518 269.633 81.1008C267.54 76.0499 266.992 70.4917 268.058 65.1293C269.124 59.7669 271.756 54.8411 275.622 50.9748C279.488 47.1086 284.413 44.4755 289.776 43.4086C295.138 42.3416 300.696 42.8888 305.747 44.9809C310.798 47.073 315.116 50.616 318.153 55.1618C321.191 59.7077 322.812 65.0523 322.812 70.5196C322.812 77.8501 319.9 84.8805 314.717 90.0644C309.534 95.2482 302.504 98.1611 295.174 98.1622Z" fill="black"/>
<path d="M389.047 27.9361V79.0429L362.916 27.9238L362.708 28.0297V27.9238H347.18V113.12H362.708V61.6299L389.047 113.111L404.575 113.132V27.9361H389.047Z" fill="black"/>
<path d="M499.918 70.5191H455.885V86.0507H480.27C476.881 91.0409 471.953 94.7856 466.238 96.7137C460.522 98.6418 454.333 98.6475 448.614 96.7298C442.895 94.8121 437.96 91.0763 434.562 86.0924C431.164 81.1084 429.49 75.1499 429.794 69.1256C430.099 63.1013 432.366 57.3419 436.249 52.7261C440.132 48.1103 445.419 44.8914 451.302 43.5603C457.185 42.2293 463.342 42.8592 468.834 45.354C474.326 47.8488 478.851 52.0714 481.72 57.3779H497.931C494.658 47.22 487.71 38.6499 478.449 33.3458C469.189 28.0417 458.281 26.3856 447.863 28.7018C437.445 31.018 428.267 37.1397 422.126 45.8681C415.985 54.5965 413.323 65.303 414.662 75.891C416.001 86.479 421.244 96.1858 429.365 103.111C437.485 110.036 447.898 113.68 458.565 113.33C469.232 112.98 479.383 108.661 487.032 101.218C494.681 93.7756 499.277 83.7458 499.918 73.0928C499.975 72.2417 500 71.3865 500 70.5191H499.918Z" fill="black"/>
<path d="M54.1973 27.9192H45.2709H34.7197V39.8224H45.2709V113.266H60.8229V27.9192H54.1973Z" fill="black"/>
<path d="M89.3618 101.362V27.9192H73.8058V113.266H80.4353H89.3618H112.085V101.362H89.3618Z" fill="black"/>
<path d="M127.018 143.767H16.7492C12.3086 143.762 8.05158 141.995 4.91167 138.855C1.77175 135.715 0.00538832 131.458 0 127.018V16.7492C0.00538832 12.3086 1.77175 8.05158 4.91167 4.91167C8.05158 1.77175 12.3086 0.00538832 16.7492 0H127.018C131.458 0.00538832 135.715 1.77175 138.855 4.91167C141.995 8.05158 143.762 12.3086 143.767 16.7492V127.018C143.762 131.458 141.995 135.715 138.855 138.855C135.715 141.995 131.458 143.762 127.018 143.767ZM16.7492 1.64521C12.7407 1.6506 8.89789 3.24532 6.06345 6.07976C3.22901 8.9142 1.63429 12.757 1.6289 16.7655V127.034C1.63322 131.043 3.22759 134.886 6.06226 137.721C8.89693 140.556 12.7403 142.15 16.7492 142.154H127.018C131.027 142.151 134.871 140.557 137.706 137.722C140.541 134.887 142.135 131.043 142.138 127.034V16.7492C142.134 12.7403 140.539 8.89693 137.705 6.06226C134.87 3.22759 131.027 1.63322 127.018 1.6289L16.7492 1.64521Z" fill="black"/>
</svg>
