<svg xmlns:xlink="http://www.w3.org/1999/xlink" height="93" viewBox="0 0 55 42" fill="none" xmlns="http://www.w3.org/2000/svg" width="121" >
<path d="M45.3705 2.583L27.3158 0L19.9133 1.04475L9.261 2.583L7.2975 2.0475L4.7565 1.344L0 8.001L5.57025 14.28L2.38875 26.145L7.2975 32.5027L9.261 35.0017H13.146L14.0228 31.7992L14.6213 29.5155L14.6843 29.3002L7.2975 24.948L6.615 24.5227L7.2975 21.9397L8.85675 16.1542L19.9133 19.1205L20.895 19.3988L19.9973 22.7062L19.9133 22.6852L11.2875 20.3595L10.605 22.8585L18.6953 27.636L16.7108 35.0227L19.9133 41.3385L20.2335 42H26.187L22.6643 35.0017H31.9725L28.4288 42H34.3823L37.926 35.0227L35.9363 27.636L44.0055 22.8585L43.344 20.3595L34.6185 22.7062L33.7208 19.3988L45.7748 16.1542L48.0165 24.5227L39.9315 29.3002L39.9945 29.5155L40.614 31.7992L41.4645 35.0017H45.3705L52.2428 26.145L49.0665 14.28L54.6158 8.001L49.854 1.344L45.3705 2.583Z" fill="#333333"></path>
</svg>