<svg width="50" height="50" viewBox="0 0 50 50" fill="none" xmlns="http://www.w3.org/2000/svg">
<g clip-path="url(#clip0_203_13019)">
<path d="M8.85417 0.625004H41.1458C42.3089 0.623908 43.4608 0.852179 44.5355 1.29675C45.6102 1.74133 46.5867 2.39348 47.4091 3.21589C48.2315 4.03829 48.8837 5.0148 49.3283 6.08953C49.7728 7.16426 50.0011 8.31612 50 9.47917V40.5208C50.0011 41.6839 49.7728 42.8358 49.3283 43.9105C48.8837 44.9852 48.2315 45.9617 47.4091 46.7841C46.5867 47.6065 45.6102 48.2587 44.5355 48.7033C43.4608 49.1478 42.3089 49.3761 41.1458 49.375H8.85417C7.69112 49.3761 6.53926 49.1478 5.46453 48.7033C4.3898 48.2587 3.41329 47.6065 2.59089 46.7841C1.76848 45.9617 1.11633 44.9852 0.671755 43.9105C0.227179 42.8358 -0.00109226 41.6839 3.92933e-06 40.5208V9.47917C-0.00109226 8.31612 0.227179 7.16426 0.671755 6.08953C1.11633 5.0148 1.76848 4.03829 2.59089 3.21589C3.41329 2.39348 4.3898 1.74133 5.46453 1.29675C6.53926 0.852179 7.69112 0.623908 8.85417 0.625004V0.625004Z" fill="#000B1D"/>
<path d="M19.7923 40.6257C22.6688 40.6257 25.0007 38.2938 25.0007 35.4173V30.209H19.7923C16.9158 30.209 14.584 32.5408 14.584 35.4173C14.584 38.2938 16.9158 40.6257 19.7923 40.6257Z" fill="#0ACF83"/>
<path d="M14.583 24.9984C14.583 22.1219 16.9149 19.79 19.7913 19.79H24.9997V30.2067H19.7913C16.9149 30.2067 14.583 27.8749 14.583 24.9984Z" fill="#A259FF"/>
<path d="M14.585 14.5833C14.585 11.7068 16.9168 9.375 19.7933 9.375H25.0016V19.7917H19.7933C16.9168 19.7917 14.585 17.4598 14.585 14.5833Z" fill="#F24E1E"/>
<path d="M25 9.375H30.2083C33.0848 9.375 35.4167 11.7068 35.4167 14.5833C35.4167 17.4598 33.0848 19.7917 30.2083 19.7917H25V9.375Z" fill="#FF7262"/>
<path d="M35.4172 24.9984C35.4172 27.8749 33.0853 30.2067 30.2088 30.2067C27.3323 30.2067 25.0005 27.8749 25.0005 24.9984C25.0005 22.1219 27.3323 19.79 30.2088 19.79C33.0853 19.79 35.4172 22.1219 35.4172 24.9984Z" fill="#1ABCFE"/>
</g>
<defs>
<clipPath id="clip0_203_13019">
<rect width="50" height="48.75" fill="white" transform="translate(0 0.625)"/>
</clipPath>
</defs>
</svg>
