<svg width="50" height="50" viewBox="0 0 50 50" fill="none" xmlns="http://www.w3.org/2000/svg">
<g clip-path="url(#clip0_203_13020)">
<path d="M8.85417 0.625004H41.1458C42.3089 0.623908 43.4607 0.852179 44.5355 1.29675C45.6102 1.74133 46.5867 2.39348 47.4091 3.21588C48.2315 4.03829 48.8837 5.0148 49.3283 6.08953C49.7728 7.16426 50.0011 8.31612 50 9.47917V40.5208C50.0011 41.6839 49.7728 42.8357 49.3283 43.9105C48.8837 44.9852 48.2315 45.9617 47.4091 46.7841C46.5867 47.6065 45.6102 48.2587 44.5355 48.7033C43.4607 49.1478 42.3089 49.3761 41.1458 49.375H8.85417C7.69112 49.3761 6.53926 49.1478 5.46453 48.7033C4.3898 48.2587 3.41329 47.6065 2.59088 46.7841C1.76848 45.9617 1.11633 44.9852 0.671755 43.9105C0.227179 42.8357 -0.00109226 41.6839 3.92932e-06 40.5208V9.47917C-0.00109226 8.31612 0.227179 7.16426 0.671755 6.08953C1.11633 5.0148 1.76848 4.03829 2.59088 3.21588C3.41329 2.39348 4.3898 1.74133 5.46453 1.29675C6.53926 0.852179 7.69112 0.623908 8.85417 0.625004V0.625004Z" fill="#001E36"/>
<path d="M11.25 34.8122V13.3747C11.25 13.2288 11.3125 13.1455 11.4583 13.1455C11.8125 13.1455 12.1458 13.1455 12.625 13.1247C13.1042 13.1038 13.6458 13.1038 14.2083 13.083C14.7708 13.0622 15.375 13.0622 16.0208 13.0413C16.6667 13.0205 17.2917 13.0205 17.9167 13.0205C19.625 13.0205 21.0417 13.2288 22.2083 13.6663C23.2542 14.0215 24.2078 14.6051 25 15.3747C25.6713 16.0482 26.19 16.8581 26.5208 17.7497C26.8362 18.6179 26.9983 19.5343 27 20.458C27 22.2497 26.5833 23.7288 25.75 24.8955C24.9128 26.0606 23.7439 26.9463 22.3958 27.4372C20.9792 27.958 19.4167 28.1455 17.7083 28.1455C17.2083 28.1455 16.875 28.1455 16.6667 28.1247C16.4583 28.1038 16.1667 28.1038 15.7708 28.1038V34.7913C15.7755 34.8256 15.7732 34.8605 15.7641 34.8939C15.755 34.9273 15.7394 34.9585 15.718 34.9857C15.6966 35.0129 15.67 35.0355 15.6397 35.0522C15.6094 35.0689 15.5761 35.0794 15.5417 35.083H11.5C11.3333 35.083 11.25 34.9997 11.25 34.8122ZM15.7917 17.1663V24.1663C16.0833 24.1872 16.3542 24.208 16.6042 24.208H17.7083C18.5216 24.209 19.3301 24.0824 20.1042 23.833C20.7683 23.6377 21.3617 23.2542 21.8125 22.7288C22.25 22.208 22.4583 21.4997 22.4583 20.583C22.4779 19.932 22.3117 19.2889 21.9792 18.7288C21.6318 18.1879 21.1209 17.7719 20.5208 17.5413C19.7387 17.235 18.9019 17.0932 18.0625 17.1247C17.5208 17.1247 17.0417 17.1247 16.6458 17.1455C16.3611 17.1269 16.0752 17.1339 15.7917 17.1663V17.1663Z" fill="#31A8FF"/>
<path d="M40 22.8958C39.371 22.5645 38.6973 22.3259 38 22.1875C37.2341 22.0141 36.4519 21.9233 35.6667 21.9167C35.245 21.9021 34.8236 21.9513 34.4167 22.0625C34.1572 22.1165 33.927 22.265 33.7708 22.4792C33.6656 22.6482 33.608 22.8426 33.6042 23.0417C33.6139 23.2399 33.6869 23.4297 33.8125 23.5833C34.01 23.8149 34.2505 24.006 34.5208 24.1458C35 24.3958 35.5 24.625 36 24.8333C37.1256 25.2123 38.2025 25.7227 39.2083 26.3542C39.8925 26.7844 40.4583 27.3788 40.8542 28.0833C41.189 28.748 41.3536 29.4853 41.3333 30.2292C41.3502 31.2139 41.0668 32.1804 40.5208 33C39.9397 33.8316 39.1289 34.476 38.1875 34.8542C37.1667 35.2917 35.9167 35.5208 34.4167 35.5208C33.4656 35.5247 32.5165 35.4339 31.5833 35.25C30.8486 35.123 30.134 34.8988 29.4583 34.5833C29.3857 34.5469 29.3253 34.49 29.2846 34.4197C29.2439 34.3493 29.2246 34.2686 29.2292 34.1875V30.5625C29.2274 30.5269 29.234 30.4914 29.2485 30.4588C29.2629 30.4262 29.2849 30.3975 29.3125 30.375C29.3419 30.3579 29.3759 30.3507 29.4097 30.3544C29.4435 30.3582 29.4751 30.3727 29.5 30.3958C30.3025 30.8689 31.1742 31.2134 32.0833 31.4167C32.886 31.6255 33.7122 31.7306 34.5417 31.7292C35.3333 31.7292 35.8958 31.625 36.2708 31.4375C36.4381 31.3602 36.5799 31.2369 36.6795 31.0819C36.7791 30.9269 36.8325 30.7467 36.8333 30.5625C36.8333 30.2708 36.6667 30 36.3333 29.7292C36 29.4583 35.3125 29.1458 34.2917 28.75C33.2444 28.381 32.2499 27.8767 31.3333 27.25C30.6805 26.7847 30.1396 26.1798 29.75 25.4792C29.4175 24.8212 29.2529 24.0912 29.2708 23.3542C29.2739 22.4652 29.5188 21.5938 29.9792 20.8333C30.5084 19.997 31.268 19.3314 32.1667 18.9167C33.1458 18.4167 34.375 18.1875 35.8542 18.1875C36.7187 18.1877 37.582 18.2504 38.4375 18.375C39.0526 18.4582 39.6546 18.6192 40.2292 18.8542C40.3207 18.8866 40.3956 18.954 40.4375 19.0417C40.4615 19.123 40.4755 19.2069 40.4792 19.2917V22.6875C40.4795 22.728 40.4702 22.768 40.4521 22.8042C40.434 22.8404 40.4076 22.8718 40.375 22.8958C40.2538 22.9394 40.1212 22.9394 40 22.8958Z" fill="#31A8FF"/>
</g>
<defs>
<clipPath id="clip0_203_13020">
<rect width="50" height="48.75" fill="white" transform="translate(0 0.625)"/>
</clipPath>
</defs>
</svg>
