<svg width="501" height="136" viewBox="0 0 501 136" fill="none" xmlns="http://www.w3.org/2000/svg">
<path d="M223.585 81.3191H208.637V74.0045H246.546V81.3515H231.781V124.894H223.585V81.3191Z" fill="#0049B8"/>
<path d="M277.218 73.4266C294.751 73.4266 302.742 85.9952 302.957 98.704C303.184 111.65 295.257 124.855 277.218 124.855H257.832V73.4266H277.218ZM265.931 116.915H277.218C289.765 116.915 295.042 107.658 294.826 98.5746C294.6 89.9438 289.248 81.2375 277.218 81.2375H265.931V116.915Z" fill="#0049B8"/>
<path d="M322.79 108.859C323.447 114.383 327.873 117.879 334.475 117.879C338.18 117.879 342.606 116.573 344.857 114.027L349.714 118.752C346.02 122.895 339.849 124.859 334.335 124.859C322.574 124.859 315.035 117.371 315.035 105.882C315.035 94.9854 322.65 87.2069 333.829 87.2069C345.363 87.2069 353.214 94.3273 351.825 108.859H322.79ZM344.631 102.537C344.124 96.7979 340.14 93.9065 334.044 93.9065C328.53 93.9065 324.104 96.8194 322.94 102.537H344.631Z" fill="#0049B8"/>
<path d="M390.203 124.854V105.662C390.203 99.48 386.713 95.3372 380.51 95.3372C374.307 95.3372 370.505 100.214 370.505 106.126V124.887H363.063V88.9397H369.88L370.311 94.1721C371.77 92.3807 373.608 90.9364 375.692 89.9438C377.776 88.9512 380.055 88.435 382.362 88.4326C390.978 88.4326 397.742 94.5389 397.742 105.586V124.854H390.203Z" fill="#0049B8"/>
<path d="M423.728 78.2418V88.6419H434.175V95.115H423.653V112.204C423.653 115.98 425.322 118.084 428.812 118.084C430.411 118.052 431.979 117.63 433.378 116.854L435.532 123.251C433.281 124.298 430.83 124.843 428.348 124.848C420.519 125.064 416.157 120.705 416.157 112.204V95.1042H409.265V88.6311H416.157V79.0294L423.728 78.2418Z" fill="#0049B8"/>
<path d="M473.572 88.0227H480.831V123.862H473.723L473.357 118.047C471.042 122.697 465.377 124.811 461.026 124.811C450.579 124.811 442.717 118.123 442.717 105.91C442.717 93.9132 450.988 87.2244 461.22 87.2244C466.378 87.2244 471.16 89.6302 473.411 93.6974L473.572 88.0227ZM450.127 105.953C450.127 113.289 455.35 117.82 461.737 117.82C477.191 117.82 477.191 94.0858 461.737 94.0858C455.35 94.1074 450.127 98.6817 450.127 105.953Z" fill="#0049B8"/>
<path d="M500.774 74.0045V124.818H493.3V74.0045H500.774Z" fill="#0049B8"/>
<path d="M119.79 0.638428H39.0174C22.4644 0.638428 4.76974 11.8908 0.77417 27.944L57.089 28.0735L28.7754 134.912H45.5762C50.1641 120.39 61.5046 109.203 76.6684 106.365C78.2753 106.047 79.9091 105.885 81.5471 105.88H90.0551L110.044 27.5017H113.005L129.429 27.3183C131.493 27.3052 133.547 27.0186 135.536 26.466C141.072 24.8905 146.281 22.3326 150.915 18.9141C156.928 14.1429 161.536 7.82658 164.248 0.638428L119.79 0.638428Z" fill="#0049B8"/>
<path d="M166.511 0.708435C166.511 0.708435 163.086 10.1268 157.324 15.9094C146.048 27.2049 134.449 28.9634 134.449 28.9634C136.288 30.579 137.71 32.6152 138.595 34.8991C139.48 37.183 139.802 39.6472 139.533 42.0822L125.693 97.7184C124.552 101.969 117.368 107.719 112.35 107.59H92.695L81.4191 107.698C66.0831 107.698 51.2639 122.025 47.5376 135.1H86.7394L140.954 134.766C158.186 133.45 171.809 120.504 175.977 107.504L191.27 44.1644C192.347 38.5975 191.916 23.6663 182.288 12.4787C173.716 2.43459 166.511 0.708435 166.511 0.708435Z" fill="#0049B8"/>
</svg>
