<svg width="501" height="129" viewBox="0 0 501 129" fill="none" xmlns="http://www.w3.org/2000/svg">
<g clip-path="url(#clip0_12_301)">
<path d="M36.7271 1.81651L36.3721 1.64206C28.6468 -2.15421 19.3068 1.03086 15.5105 8.75611L1.59656 37.0704C-2.19971 44.7957 0.985357 54.1357 8.71061 57.932L9.06559 58.1064C16.7908 61.9027 26.1309 58.7176 29.9271 50.9924L43.8411 22.6781C47.6374 14.9528 44.4523 5.61278 36.7271 1.81651Z" fill="#F3C25C"/>
<path d="M87.9499 1.89013L87.2953 1.56845C79.6528 -2.18716 70.4128 0.963789 66.6571 8.6063L19.021 105.544C15.2653 113.186 18.4163 122.426 26.0588 126.182L26.7134 126.504C34.3559 130.259 43.5959 127.108 47.3515 119.466L94.9877 22.5283C98.7433 14.8857 95.5924 5.64574 87.9499 1.89013Z" fill="#F3C25C"/>
<path d="M145.907 22.8506C149.752 15.0264 146.527 5.56714 138.703 1.72269C130.88 -2.12175 121.421 1.10447 117.576 8.92864L103.835 36.8912C99.9904 44.7154 103.216 54.1747 111.039 58.0191C118.862 61.8636 128.321 58.6373 132.166 50.8132L145.907 22.8506Z" fill="#FF7246"/>
<path d="M111.262 92.3186C115.107 84.4944 111.882 75.0352 104.058 71.1907C96.2352 67.3463 86.7763 70.5725 82.9314 78.3967L69.3855 105.962C65.5407 113.786 68.7658 123.245 76.5891 127.09C84.4123 130.934 93.8712 127.708 97.7161 119.884L111.262 92.3186Z" fill="#FF7246"/>
<path d="M196.982 22.8506C200.827 15.0264 197.602 5.56714 189.778 1.72269C181.955 -2.12175 172.496 1.10446 168.651 8.92864L121.209 105.472C117.364 113.296 120.589 122.756 128.412 126.6C136.236 130.444 145.695 127.218 149.539 119.394L196.982 22.8506Z" fill="#45D7BB"/>
<path d="M187.839 128.229C197.35 128.229 205.061 120.519 205.061 111.007C205.061 101.496 197.35 93.7854 187.839 93.7854C178.327 93.7854 170.617 101.496 170.617 111.007C170.617 120.519 178.327 128.229 187.839 128.229Z" fill="#45D7BB"/>
</g>
<path d="M331.134 119.85H306.681V85.262L280.136 8.36324H304.911L310.22 25.2552C314.403 38.4471 317.406 50.1374 319.229 60.3262C321.267 49.9229 324.323 38.1253 328.399 24.9335L333.547 8.36324H357.678L331.134 85.262V119.85ZM430.462 33.9425V44.3995C430.462 54.8028 426.655 61.1842 419.04 63.5437C427.298 65.4742 431.427 71.9093 431.427 82.8489V94.2711C431.427 111.324 422.311 119.85 404.079 119.85H364.986V8.36324H403.113C421.346 8.36324 430.462 16.8897 430.462 33.9425ZM399.091 28.6336H389.117V52.9259H399.091C404.132 52.9259 406.653 50.62 406.653 46.0082V35.5513C406.653 30.9395 404.132 28.6336 399.091 28.6336ZM407.618 92.6623V81.2401C407.618 76.6283 405.097 74.3224 400.057 74.3224H389.117V99.58H400.057C405.097 99.58 407.618 97.2741 407.618 92.6623ZM444.324 8.36324H468.777V99.58H498.539V119.85H444.324V8.36324Z" fill="black"/>
<defs>
<clipPath id="clip0_12_301">
<rect width="205.061" height="128.701" fill="white"/>
</clipPath>
</defs>
</svg>
