<svg width="50" height="50" viewBox="0 0 50 50" fill="none" xmlns="http://www.w3.org/2000/svg">
<g clip-path="url(#clip0_203_13018)">
<path d="M19.6154 27.4995C19.7972 24.2563 21.3853 21.3989 23.7813 19.3734C26.1309 17.384 29.2935 16.168 32.7443 16.168C36.1915 16.168 39.3541 17.384 41.7055 19.3734C44.0998 21.3989 45.6879 24.2563 45.8714 27.496C46.0532 30.8284 44.7137 33.9241 42.3641 36.2189C39.9681 38.5531 36.5603 40.0178 32.7443 40.0178C28.9282 40.0178 25.5135 38.5531 23.1193 36.2189C20.7679 33.9241 19.4319 30.8284 19.6154 27.4995Z" fill="white"/>
<path d="M26.0091 27.7879C26.1024 26.1238 26.9173 24.6577 28.1466 23.6184C29.3523 22.5976 30.975 21.9736 32.7456 21.9736C34.5145 21.9736 36.1372 22.5976 37.3437 23.6184C38.5722 24.6577 39.3871 26.1238 39.4813 27.7862C39.5746 29.496 38.8873 31.0845 37.6816 32.2619C36.4523 33.4596 34.7037 34.2112 32.7456 34.2112C30.7876 34.2112 29.0355 33.4596 27.807 32.2619C26.6004 31.0845 25.9149 29.496 26.0091 27.7879Z" fill="#265787"/>
<path d="M15.3146 31.2069C15.3261 31.8595 15.5342 33.1277 15.8464 34.118C16.5025 36.2143 17.6155 38.1536 19.1641 39.8628C20.7533 41.6195 22.7102 43.0306 24.9706 44.0324C27.3464 45.0845 29.9207 45.6207 32.5946 45.6163C35.2641 45.6128 37.8384 45.066 40.2143 44.0059C42.4746 42.9944 44.4298 41.5772 46.0163 39.8195C47.5641 38.1034 48.6753 36.1605 49.3332 34.0642C49.6639 33.0051 49.8729 31.93 49.9567 30.8515C50.0387 29.7888 50.0043 28.7243 49.8535 27.6607C49.5589 25.5883 48.8419 23.6437 47.7378 21.871C46.728 20.2422 45.4263 18.8161 43.8786 17.6159L43.8821 17.6132L28.2627 5.6202C28.2486 5.60962 28.2371 5.59815 28.2221 5.58845C27.1974 4.8018 25.4741 4.80444 24.3471 5.59286C23.2076 6.3901 23.0771 7.70855 24.0913 8.54018L24.0869 8.54459L30.6015 13.8422L10.7455 13.8634H10.719C9.07778 13.8651 7.50006 14.9419 7.18786 16.3027C6.86685 17.6891 7.98158 18.8391 9.68806 18.8452L9.68541 18.8514L19.7497 18.832L1.79061 32.617C1.76768 32.6338 1.74299 32.6514 1.72182 32.6682C0.0276867 33.9655 -0.519975 36.1226 0.547128 37.4878C1.63011 38.8759 3.93276 38.8786 5.64453 37.4957L15.446 29.4739C15.446 29.4739 15.3031 30.5569 15.3146 31.2069ZM40.5009 34.8333C38.4813 36.8907 35.6539 38.0575 32.5946 38.0637C29.5309 38.069 26.7035 36.9128 24.6839 34.8588C23.6971 33.8579 22.9722 32.7061 22.525 31.4794C22.0867 30.2738 21.9165 28.9942 22.0294 27.7031C22.1361 26.4411 22.5118 25.2373 23.1115 24.1481C23.7006 23.0775 24.512 22.11 25.5138 21.2916C27.4769 19.6919 29.9763 18.8258 32.5902 18.8223C35.2068 18.8188 37.7044 19.6769 39.6693 21.2713C40.6693 22.0862 41.4798 23.0501 42.0689 24.119C42.6713 25.2073 43.0443 26.4067 43.1554 27.6722C43.2665 28.9615 43.0963 30.2394 42.658 31.4459C42.21 32.6761 41.4877 33.8279 40.5009 34.8333Z" fill="#EA7600"/>
</g>
<defs>
<clipPath id="clip0_203_13018">
<rect width="50" height="40.625" fill="white" transform="translate(0 5)"/>
</clipPath>
</defs>
</svg>
