<svg width="50" height="50" viewBox="0 0 50 50" fill="none" xmlns="http://www.w3.org/2000/svg">
<g clip-path="url(#clip0_203_13017)">
<path d="M8.85417 0.625004H41.1458C42.3089 0.623908 43.4607 0.852179 44.5355 1.29675C45.6102 1.74133 46.5867 2.39348 47.4091 3.21588C48.2315 4.03829 48.8837 5.0148 49.3283 6.08953C49.7728 7.16426 50.0011 8.31612 50 9.47917V40.5208C50.0011 41.6839 49.7728 42.8357 49.3283 43.9105C48.8837 44.9852 48.2315 45.9617 47.4091 46.7841C46.5867 47.6065 45.6102 48.2587 44.5355 48.7033C43.4607 49.1478 42.3089 49.3761 41.1458 49.375H8.85417C7.69112 49.3761 6.53926 49.1478 5.46453 48.7033C4.3898 48.2587 3.41329 47.6065 2.59088 46.7841C1.76848 45.9617 1.11633 44.9852 0.671755 43.9105C0.227179 42.8357 -0.00109226 41.6839 3.92932e-06 40.5208V9.47917C-0.00109226 8.31612 0.227179 7.16426 0.671755 6.08953C1.11633 5.0148 1.76848 4.03829 2.59088 3.21588C3.41329 2.39348 4.3898 1.74133 5.46453 1.29675C6.53926 0.852179 7.69112 0.623908 8.85417 0.625004V0.625004Z" fill="#330000"/>
<path d="M24.2294 29.8753H16.4794L14.896 34.7712C14.8783 34.8604 14.8279 34.9398 14.7547 34.9938C14.6814 35.0477 14.5907 35.0724 14.5002 35.0628H10.5835C10.3544 35.0628 10.2919 34.9378 10.3544 34.6878L17.0627 15.3753C17.1252 15.167 17.1877 14.9378 17.271 14.6878C17.3549 14.2413 17.3967 13.788 17.396 13.3337C17.3898 13.2815 17.4035 13.2289 17.4344 13.1864C17.4653 13.1439 17.5111 13.1146 17.5627 13.1045H22.9585C23.1252 13.1045 23.2085 13.167 23.2294 13.2712L30.8335 34.7295C30.896 34.9587 30.8335 35.0628 30.6252 35.0628H26.271C26.1974 35.0699 26.1236 35.0508 26.0626 35.0089C26.0017 34.967 25.9574 34.905 25.9377 34.8337L24.2294 29.8753ZM17.6877 25.6462H22.9794C22.8544 25.2087 22.6877 24.6878 22.5002 24.1462C22.3127 23.6045 22.1252 22.9795 21.9377 22.3545C21.7502 21.7295 21.5419 21.0837 21.3335 20.4378C21.1252 19.792 20.9377 19.1878 20.771 18.5837C20.6044 17.9795 20.4585 17.4587 20.3127 16.9587H20.271C20.0838 17.8667 19.8473 18.7638 19.5627 19.6462C19.2502 20.6462 18.9377 21.6878 18.6044 22.7295C18.3127 23.792 18.0002 24.7712 17.6877 25.6462V25.6462Z" fill="#FF9A00"/>
<path d="M35.3751 16.6667C35.0331 16.6742 34.6931 16.6136 34.3748 16.4884C34.0564 16.3633 33.7662 16.176 33.5209 15.9376C33.0436 15.4157 32.7894 14.7278 32.8126 14.0209C32.8003 13.6765 32.8607 13.3334 32.99 13.0139C33.1192 12.6944 33.3143 12.4057 33.5626 12.1667C34.0634 11.6934 34.7278 11.4322 35.4168 11.4376C36.2293 11.4376 36.8543 11.6876 37.3126 12.1667C37.7741 12.6719 38.0207 13.337 38.0001 14.0209C38.0128 14.3729 37.9548 14.7239 37.8296 15.0531C37.7043 15.3823 37.5144 15.683 37.2709 15.9376C37.0254 16.1876 36.7292 16.3821 36.4021 16.5079C36.0751 16.6337 35.7249 16.6879 35.3751 16.6667V16.6667ZM33.0418 34.7501V18.7084C33.0418 18.5001 33.1251 18.4167 33.3126 18.4167H37.4376C37.6251 18.4167 37.7084 18.5209 37.7084 18.7084V34.7501C37.7084 34.9792 37.6251 35.0834 37.4376 35.0834H33.3543C33.3105 35.087 33.2664 35.0807 33.2255 35.0649C33.1845 35.0491 33.1476 35.0243 33.1175 34.9922C33.0875 34.9602 33.065 34.9217 33.0519 34.8798C33.0388 34.8379 33.0353 34.7935 33.0418 34.7501V34.7501Z" fill="#FF9A00"/>
</g>
<defs>
<clipPath id="clip0_203_13017">
<rect width="50" height="48.75" fill="white" transform="translate(0 0.625)"/>
</clipPath>
</defs>
</svg>
