<svg width="500" height="188" viewBox="0 0 500 188" fill="none" xmlns="http://www.w3.org/2000/svg">
<g clip-path="url(#clip0_11_263)">
<path d="M336.712 181.391C327.531 181.418 318.614 178.317 311.43 172.599C304.246 166.882 299.223 158.888 297.189 149.935C295.154 140.982 296.229 131.603 300.237 123.342C304.244 115.082 310.945 108.432 319.236 104.488C319.535 104.369 319.828 104.234 320.112 104.083C326.185 101.079 327.099 96.2465 327.099 93.6343C327.099 90.578 326.329 86.6467 320.334 83.3161C311.868 79.5577 304.951 73.0055 300.74 64.7562C296.529 56.507 295.279 47.0614 297.2 38.0008C299.121 28.9401 304.096 20.8143 311.292 14.9837C318.489 9.15302 327.47 5.97138 336.732 5.97138C345.994 5.97138 354.975 9.15302 362.171 14.9837C369.367 20.8143 374.343 28.9401 376.264 38.0008C378.185 47.0614 376.935 56.507 372.723 64.7562C368.512 73.0055 361.595 79.5577 353.13 83.3161C347.082 86.6728 346.312 90.6041 346.312 93.6604C346.312 96.2726 347.226 101.157 353.313 104.109L354.201 104.514C362.456 108.479 369.119 115.13 373.099 123.378C377.08 131.625 378.141 140.98 376.108 149.909C374.076 158.839 369.071 166.813 361.913 172.526C354.755 178.238 345.87 181.35 336.712 181.352V181.391ZM336.712 116.164C331.804 116.164 327.006 117.62 322.925 120.347C318.844 123.073 315.663 126.949 313.785 131.484C311.907 136.018 311.416 141.008 312.373 145.822C313.331 150.635 315.694 155.057 319.165 158.528C322.635 161.998 327.057 164.362 331.871 165.319C336.685 166.277 341.674 165.785 346.209 163.907C350.743 162.029 354.619 158.848 357.346 154.767C360.072 150.686 361.528 145.888 361.528 140.98C361.528 134.399 358.913 128.087 354.259 123.433C349.606 118.779 343.294 116.164 336.712 116.164V116.164ZM336.712 21.5377C331.804 21.5377 327.006 22.9931 322.925 25.7199C318.844 28.4467 315.663 32.3224 313.785 36.8569C311.907 41.3914 311.416 46.3811 312.373 51.1949C313.331 56.0087 315.694 60.4305 319.165 63.901C322.635 67.3716 327.057 69.7351 331.871 70.6926C336.685 71.6501 341.674 71.1587 346.209 69.2804C350.743 67.4022 354.619 64.2214 357.346 60.1405C360.072 56.0596 361.528 51.2617 361.528 46.3536C361.528 39.772 358.913 33.46 354.259 28.8061C349.606 24.1522 343.294 21.5377 336.712 21.5377V21.5377ZM336.712 187.334C326.204 187.335 316.008 183.765 307.795 177.211C299.582 170.657 293.84 161.506 291.509 151.26C289.179 141.014 290.399 130.281 294.969 120.819C299.54 111.357 307.189 103.729 316.663 99.1852L317.382 98.8587C319.994 97.5526 321.156 95.8938 321.156 93.6343C321.156 92.2237 321.156 90.6303 317.643 88.6189C307.984 84.2558 300.112 76.7146 295.339 67.2519C290.566 57.7892 289.179 46.9764 291.411 36.6155C293.642 26.2547 299.357 16.9714 307.603 10.3127C315.848 3.65394 326.127 0.0219727 336.725 0.0219727C347.324 0.0219727 357.602 3.65394 365.848 10.3127C374.093 16.9714 379.808 26.2547 382.039 36.6155C384.271 46.9764 382.884 57.7892 378.111 67.2519C373.338 76.7146 365.466 84.2558 355.807 88.6189C352.255 90.6564 352.255 92.2498 352.255 93.6604C352.255 95.92 353.469 97.5787 355.951 98.8848L356.774 99.2636C366.242 103.812 373.884 111.441 378.449 120.901C383.014 130.362 384.23 141.092 381.899 151.334C379.567 161.575 373.827 170.722 365.617 177.274C357.408 183.827 347.216 187.397 336.712 187.399V187.334ZM336.712 3.17396C326.827 3.17168 317.24 6.56037 309.551 12.7743C301.863 18.9882 296.539 27.6514 294.468 37.3174C292.397 46.9834 293.704 57.0674 298.172 65.8858C302.639 74.7042 309.996 81.7234 319.014 85.7716H319.145C323.69 88.3838 324.369 91.0613 324.369 93.6082C324.369 96.1551 323.429 99.3942 318.923 101.628L318.113 102.006C309.284 106.239 302.154 113.346 297.894 122.162C293.634 130.978 292.495 140.981 294.666 150.529C296.836 160.077 302.186 168.604 309.839 174.712C317.491 180.821 326.992 184.148 336.784 184.148C346.576 184.148 356.077 180.821 363.729 174.712C371.382 168.604 376.732 160.077 378.902 150.529C381.072 140.981 379.934 130.978 375.674 122.162C371.414 113.346 364.284 106.239 355.455 102.006C355.455 102.006 354.854 101.732 354.632 101.615C350.086 99.3681 349.146 96.0114 349.146 93.582C349.146 91.1527 349.773 88.3577 354.37 85.7455H354.501C363.519 81.6896 370.872 74.6624 375.333 65.8375C379.793 57.0127 381.091 46.9246 379.009 37.2582C376.926 27.5919 371.591 18.9326 363.893 12.7268C356.194 6.52094 346.6 3.14431 336.712 3.1609V3.17396Z" fill="#F58429"/>
<path d="M31.5294 85.1575C21.2608 85.1534 11.2471 81.9585 2.8736 76.0148C1.97484 75.3459 1.24633 74.4746 0.747103 73.4716C0.24788 72.4687 -0.00800401 71.3622 0.000190802 70.2418C-0.00345046 69.3041 0.18031 68.375 0.540681 67.5092C0.901053 66.6434 1.43077 65.8584 2.09873 65.2002C2.7667 64.5419 3.55944 64.0238 4.43042 63.6762C5.30139 63.3285 6.23304 63.1584 7.17066 63.1758C8.75389 63.1569 10.3014 63.6468 11.5853 64.5734C17.3727 69.1157 24.4991 71.6182 31.8559 71.6916C39.3529 71.6916 43.8328 68.6615 43.8328 63.5938V63.3718C43.8328 58.3041 40.3455 56.0184 27.6241 52.7532C13.4138 49.1222 2.61239 45.1386 2.61239 29.8442V29.6222C2.61239 16.3392 13.3746 7.05286 28.8649 7.05286C37.3958 6.92784 45.7813 9.268 53.0147 13.7923C54.344 14.6001 55.3708 15.8224 55.9371 17.2711C56.5035 18.7198 56.5778 20.3145 56.1487 21.8096C55.7196 23.3047 54.8109 24.6173 53.5626 25.5452C52.3142 26.4731 50.7954 26.9648 49.2401 26.9447C47.8555 26.9509 46.4973 26.5661 45.3218 25.8345C39.2484 22.2558 33.7889 20.5187 28.6429 20.5187C22.1124 20.5187 17.8937 23.4836 17.8937 28.068V28.29C17.8937 34.2719 22.3736 35.9568 35.1995 39.2351C55.1044 44.4595 59.1795 51.9695 59.1795 61.713V61.9351C59.1795 76.2629 48.587 85.1575 31.5294 85.1575Z" fill="#002952"/>
<path d="M79.2807 84.047C78.2642 84.0575 77.2557 83.865 76.3144 83.4808C75.3732 83.0966 74.5181 82.5284 73.7992 81.8095C73.0803 81.0906 72.5121 80.2355 72.1279 79.2943C71.7437 78.353 71.5512 77.3446 71.5617 76.328V15.8949C71.5495 14.8772 71.7407 13.8673 72.1241 12.9245C72.5075 11.9818 73.0754 11.1251 73.7945 10.4048C74.5135 9.68457 75.3693 9.11521 76.3114 8.7302C77.2535 8.34518 78.263 8.15227 79.2807 8.16278H122.238C123.154 8.12258 124.069 8.2683 124.927 8.59116C125.786 8.91402 126.57 9.40733 127.232 10.0413C127.895 10.6754 128.422 11.437 128.782 12.2802C129.142 13.1235 129.328 14.031 129.328 14.948C129.328 15.8649 129.142 16.7724 128.782 17.6157C128.422 18.4589 127.895 19.2205 127.232 19.8546C126.57 20.4886 125.786 20.9819 124.927 21.3047C124.069 21.6276 123.154 21.7733 122.238 21.7331H86.9737V39.0389H117.249C119.05 39.0389 120.778 39.7545 122.051 41.0281C123.325 42.3018 124.041 44.0293 124.041 45.8306C124.041 47.6319 123.325 49.3594 122.051 50.6331C120.778 51.9068 119.05 52.6223 117.249 52.6223H86.9084V70.5289H122.774C123.69 70.4887 124.605 70.6344 125.463 70.9573C126.321 71.2801 127.105 71.7734 127.768 72.4075C128.43 73.0415 128.957 73.8031 129.317 74.6464C129.678 75.4896 129.863 76.3971 129.863 77.3141C129.863 78.231 129.678 79.1385 129.317 79.9818C128.957 80.8251 128.43 81.5867 127.768 82.2207C127.105 82.8547 126.321 83.348 125.463 83.6709C124.605 83.9937 123.69 84.1394 122.774 84.0992L79.2807 84.047Z" fill="#002952"/>
<path d="M150.594 84.7136C149.59 84.7137 148.597 84.5154 147.67 84.1303C146.744 83.7452 145.903 83.1808 145.195 82.4696C144.488 81.7583 143.928 80.9143 143.547 79.9859C143.167 79.0575 142.974 78.0632 142.979 77.0599V15.4514C142.967 14.4337 143.158 13.4238 143.541 12.481C143.925 11.5383 144.493 10.6816 145.212 9.96134C145.931 9.24107 146.786 8.67171 147.729 8.2867C148.671 7.90168 149.68 7.70877 150.698 7.71928H152.474C156.288 7.71928 158.522 9.587 160.703 12.3951L194.988 57.4685V15.1118C195.069 13.1451 195.908 11.2861 197.328 9.92338C198.748 8.56066 200.641 7.79975 202.609 7.79975C204.577 7.79975 206.469 8.56066 207.89 9.92338C209.31 11.2861 210.149 13.1451 210.23 15.1118V76.7726C210.241 77.7947 210.046 78.8087 209.658 79.7543C209.27 80.6999 208.696 81.558 207.97 82.2778C207.244 82.9975 206.381 83.5644 205.432 83.9446C204.483 84.3249 203.468 84.5109 202.446 84.4916H201.897C198.083 84.4916 195.85 82.6239 193.669 79.8158L158.208 33.2404V77.0599C158.211 78.0627 158.017 79.0563 157.636 79.9839C157.255 80.9115 156.695 81.7548 155.988 82.4657C155.281 83.1766 154.44 83.7411 153.514 84.1268C152.589 84.5125 151.596 84.7119 150.594 84.7136V84.7136Z" fill="#002952"/>
<path d="M254.481 85.1575C244.213 85.1474 234.201 81.9531 225.825 76.0148C224.926 75.3459 224.198 74.4746 223.698 73.4716C223.199 72.4687 222.943 71.3622 222.951 70.2418C222.948 69.3041 223.131 68.375 223.492 67.5092C223.852 66.6434 224.382 65.8584 225.05 65.2002C225.718 64.5419 226.511 64.0238 227.382 63.6762C228.253 63.3285 229.184 63.1584 230.122 63.1758C231.704 63.1633 233.25 63.6526 234.536 64.5734C240.324 69.1157 247.45 71.6182 254.807 71.6916C262.304 71.6916 266.784 68.6615 266.784 63.5938V63.3718C266.784 58.3041 263.297 56.0184 250.575 52.7532C236.365 49.1222 225.498 45.1386 225.498 29.8442V29.6222C225.498 16.3392 236.326 7.05286 251.816 7.05286C260.347 6.92784 268.732 9.268 275.966 13.7923C277.295 14.6001 278.322 15.8224 278.888 17.2711C279.455 18.7198 279.529 20.3145 279.1 21.8096C278.671 23.3047 277.762 24.6173 276.514 25.5452C275.265 26.4731 273.747 26.9648 272.191 26.9447C270.807 26.9467 269.45 26.5622 268.273 25.8345C262.213 22.2558 256.753 20.5187 251.607 20.5187C245.077 20.5187 240.858 23.4836 240.858 28.068V28.29C240.858 34.2719 245.338 35.9568 258.164 39.2351C278.056 44.4072 282.118 51.9695 282.118 61.713V61.9351C282.118 76.2629 271.525 85.1575 254.481 85.1575Z" fill="#002952"/>
<path d="M449.676 84.7136C448.133 84.7214 446.611 84.3503 445.245 83.633C443.879 82.9157 442.709 81.874 441.84 80.5994L425.043 59.2577H410.245V77.0598C410.163 79.0538 409.313 80.9389 407.873 82.3207C406.434 83.7026 404.515 84.4742 402.519 84.4742C400.524 84.4742 398.605 83.7026 397.166 82.3207C395.726 80.9389 394.876 79.0538 394.794 77.0598V15.8953C394.783 14.877 394.976 13.8669 395.361 12.924C395.746 11.9812 396.315 11.1247 397.035 10.4046C397.755 9.68448 398.612 9.11533 399.555 8.73047C400.498 8.34561 401.508 8.15277 402.526 8.16325H429.419C438.836 8.16325 446.398 10.7754 451.426 15.7909C455.632 19.9834 457.839 25.9131 457.839 32.9399V33.1619C457.839 44.2115 452.798 51.9044 442.832 56.0056L441.853 56.4105L454.365 71.6265C456.05 73.7424 456.977 75.3358 456.977 77.6476C456.972 78.5941 456.778 79.53 456.407 80.4005C456.035 81.271 455.494 82.0585 454.813 82.7168C454.133 83.375 453.328 83.8907 452.446 84.2336C451.564 84.5765 450.622 84.7397 449.676 84.7136ZM410.245 45.7919H428.308C436.85 45.7919 442.166 41.2859 442.166 34.037V33.828C442.166 26.2788 436.942 21.9556 427.982 21.9556H410.245V45.7919Z" fill="#002952"/>
<path d="M170.746 179.706C169.728 179.717 168.718 179.524 167.775 179.139C166.832 178.754 165.975 178.185 165.255 177.465C164.535 176.745 163.966 175.888 163.581 174.945C163.196 174.003 163.003 172.992 163.014 171.974V110.888C163.007 109.872 163.202 108.865 163.589 107.925C163.975 106.985 164.545 106.132 165.265 105.414C165.984 104.697 166.84 104.13 167.781 103.747C168.722 103.364 169.73 103.172 170.746 103.182H214.2C215.992 103.26 217.686 104.026 218.926 105.322C220.167 106.618 220.86 108.343 220.86 110.137C220.86 111.931 220.167 113.656 218.926 114.952C217.686 116.248 215.992 117.014 214.2 117.092H178.543V135.168H209.211C210.149 135.128 211.087 135.277 211.966 135.609C212.845 135.94 213.648 136.445 214.327 137.095C215.005 137.745 215.546 138.526 215.914 139.39C216.283 140.254 216.474 141.184 216.474 142.123C216.474 143.063 216.283 143.993 215.914 144.857C215.546 145.721 215.005 146.501 214.327 147.151C213.648 147.801 212.845 148.307 211.966 148.638C211.087 148.969 210.149 149.119 209.211 149.078H178.478V172C178.485 173.016 178.29 174.024 177.903 174.964C177.517 175.903 176.947 176.757 176.227 177.474C175.508 178.191 174.652 178.758 173.711 179.141C172.77 179.525 171.762 179.717 170.746 179.706V179.706Z" fill="#002952"/>
<path d="M241.406 179.04C240.389 179.052 239.379 178.861 238.436 178.477C237.493 178.094 236.636 177.526 235.916 176.807C235.196 176.088 234.627 175.232 234.242 174.29C233.857 173.348 233.664 172.338 233.674 171.321V110.221C233.631 109.18 233.799 108.141 234.168 107.166C234.537 106.192 235.099 105.302 235.821 104.55C236.543 103.798 237.409 103.2 238.367 102.791C239.326 102.382 240.358 102.172 241.4 102.172C242.442 102.172 243.473 102.382 244.432 102.791C245.391 103.2 246.257 103.798 246.978 104.55C247.7 105.302 248.262 106.192 248.631 107.166C249 108.141 249.168 109.18 249.125 110.221V165.078H281.464C282.403 165.037 283.34 165.187 284.219 165.518C285.099 165.849 285.902 166.355 286.58 167.005C287.259 167.654 287.799 168.435 288.168 169.299C288.537 170.163 288.727 171.093 288.727 172.033C288.727 172.972 288.537 173.902 288.168 174.766C287.799 175.63 287.259 176.411 286.58 177.061C285.902 177.71 285.099 178.216 284.219 178.547C283.34 178.878 282.403 179.028 281.464 178.987L241.406 179.04Z" fill="#002952"/>
<path d="M467.805 180.242C464.109 180.242 461.274 177.943 459.812 173.79L443.786 127.267L427.76 173.829C426.31 177.969 423.476 180.268 419.767 180.268H417.951C414.268 180.268 411.316 177.917 409.84 173.816L388.198 112.939C387.843 111.997 387.635 111.006 387.584 110C387.603 108.981 387.824 107.976 388.236 107.044C388.648 106.113 389.242 105.272 389.983 104.573C390.723 103.873 391.596 103.329 392.551 102.971C393.505 102.613 394.52 102.45 395.539 102.49C397.221 102.48 398.863 103.011 400.22 104.006C401.577 105.001 402.578 106.407 403.075 108.015L419.257 157.816L435.505 108.472C436.811 104.554 439.698 102.268 443.342 102.268H444.648C448.383 102.268 451.244 104.527 452.484 108.472L468.745 157.816L484.876 108.028C485.365 106.432 486.351 105.035 487.69 104.039C489.029 103.043 490.652 102.5 492.32 102.49C493.308 102.466 494.291 102.639 495.212 102.999C496.132 103.359 496.971 103.899 497.68 104.587C498.389 105.276 498.954 106.098 499.341 107.008C499.728 107.917 499.93 108.894 499.935 109.882C499.877 110.931 499.666 111.965 499.308 112.952L477.627 173.816C476.151 177.917 473.199 180.268 469.516 180.268L467.805 180.242Z" fill="#002952"/>
</g>
<defs>
<clipPath id="clip0_11_263">
<rect width="500" height="187.333" fill="white"/>
</clipPath>
</defs>
</svg>
