<svg width="500" height="118" viewBox="0 0 500 118" fill="none" xmlns="http://www.w3.org/2000/svg">
<path d="M484.187 26.3317C486.779 26.969 489.17 27.4299 491.474 28.1716C493.222 28.7277 494.898 29.4866 496.468 30.4328C497.3 30.8369 498.033 31.4202 498.613 32.1407C499.193 32.8612 499.607 33.7012 499.825 34.6004C500.042 35.4996 500.058 36.4358 499.871 37.3418C499.684 38.2479 499.299 39.1014 498.744 39.8412C498.298 40.6985 497.682 41.4561 496.935 42.0681C496.187 42.6801 495.322 43.1336 494.394 43.401C493.465 43.6684 492.492 43.7441 491.533 43.6237C490.575 43.5032 489.651 43.1889 488.817 42.7001C483.197 39.3645 476.562 38.1667 470.13 39.3263C467.919 39.7678 465.842 40.7223 464.067 42.1132C463.373 42.5599 462.82 43.1953 462.474 43.9449C462.128 44.6944 462.003 45.5271 462.114 46.3452C462.224 47.1634 462.565 47.9331 463.097 48.5642C463.63 49.1953 464.331 49.6617 465.119 49.9085C468.687 51.5324 472.474 52.6666 476.154 54.0744C478.78 55.0079 481.354 56.0837 483.863 57.297C486.507 58.4435 488.652 60.5009 489.907 63.0951C491.162 65.6893 491.445 68.648 490.704 71.433C488.655 82.1592 481.508 87.9958 471.434 90.4694C470.137 90.6328 468.936 91.2359 468.03 92.1783C467.125 93.1206 466.57 94.345 466.458 95.6471C465.929 98.5853 465.086 101.43 464.298 104.289C464.147 105.093 463.833 105.859 463.375 106.537C462.917 107.216 462.325 107.793 461.635 108.234C460.945 108.674 460.172 108.968 459.364 109.098C458.555 109.228 457.729 109.191 456.936 108.988C456.143 108.786 455.399 108.423 454.752 107.922C454.105 107.42 453.567 106.792 453.172 106.075C452.778 105.357 452.535 104.567 452.458 103.752C452.381 102.937 452.472 102.115 452.726 101.336C453.446 98.3872 454.166 95.4491 454.947 92.3346C452.171 91.9241 449.546 91.7405 447.065 91.1212C443.924 90.3909 440.849 89.4034 437.87 88.1687C436.985 87.8281 436.187 87.2965 435.531 86.6116C434.876 85.9267 434.38 85.1056 434.078 84.2068C433.777 83.308 433.678 82.3538 433.788 81.4123C433.898 80.4708 434.215 79.5652 434.716 78.7602C435.068 77.8561 435.613 77.039 436.311 76.3649C437.009 75.6907 437.844 75.1756 438.76 74.8548C439.676 74.534 440.651 74.4151 441.617 74.5062C442.583 74.5974 443.518 74.8964 444.358 75.3829C450.429 78.583 457.296 79.9585 464.132 79.3436C466.296 79.132 468.419 78.6131 470.436 77.8025C471.476 77.5329 472.38 76.8912 472.977 75.9991C473.574 75.1071 473.823 74.0268 473.677 72.9633C473.431 72.1223 473.017 71.3399 472.46 70.6635C471.903 69.9871 471.215 69.4306 470.436 69.0278C466.476 67.2275 462.281 65.9384 458.195 64.4406C457.374 64.1417 456.571 63.7925 455.75 63.4936C443.573 59.0937 442.612 49.5412 447.948 40.1508C450.176 36.5163 453.218 33.4489 456.834 31.1902C460.449 28.9315 464.54 27.5432 468.784 27.1346C469.77 27.111 470.712 26.7204 471.425 26.0391C472.138 25.3579 472.571 24.4351 472.64 23.4512C473.212 20.4627 474.08 17.5246 474.862 14.5757C475.942 10.3701 478.912 8.3754 482.466 9.35117C486.02 10.3269 487.506 13.4199 486.408 17.7082C485.631 20.5239 484.925 23.372 484.187 26.3317Z" fill="#05563F"/>
<path d="M255.639 40.3998H244.808C243.324 40.4463 241.838 40.3897 240.362 40.2306C239.766 40.2172 239.18 40.0732 238.646 39.8089C238.112 39.5446 237.642 39.1663 237.27 38.7008C236.898 38.2353 236.633 37.6938 236.492 37.1146C236.352 36.5353 236.341 35.9324 236.459 35.3482C236.46 33.3112 237.223 31.3483 238.598 29.8457C239.974 28.3431 241.861 27.4096 243.89 27.2288C245.109 27.0579 246.339 26.9773 247.57 26.9876H289.001C293.358 27.0308 295.306 28.0389 295.745 30.5126C296.006 32.3347 295.679 34.1927 294.81 35.8157C293.942 37.4388 292.577 38.7421 290.917 39.5357C289.688 39.9816 288.401 40.2448 287.096 40.317C284.832 40.4575 282.52 40.317 280.255 40.3422C277.803 40.0429 275.315 40.2688 272.957 41.0048C271.765 43.0732 270.941 45.3333 270.523 47.6839C266.923 59.6091 263.502 71.5812 259.938 83.5424C259.332 85.9873 257.89 88.1434 255.862 89.6379C253.835 91.1324 251.349 91.8712 248.834 91.7266C247.865 91.8685 246.877 91.7476 245.971 91.3767C245.065 91.0057 244.275 90.3984 243.684 89.618C243.094 88.8377 242.723 87.9129 242.612 86.9405C242.5 85.968 242.652 84.9835 243.051 84.0897C244.852 77.5366 246.825 71.0303 248.733 64.5096C250.783 57.5028 252.84 50.4804 254.904 43.4424C255.153 42.6142 255.318 41.7717 255.639 40.3998Z" fill="#05563F"/>
<path d="M414.558 27.7441C411.311 26.7264 407.942 26.1535 404.541 26.041C401.902 26.0085 399.265 26.2073 396.66 26.6351C386.481 28.7356 377.405 34.4452 371.105 42.7113C364.805 50.9774 361.706 61.2426 362.379 71.614C362.495 75.8881 363.967 80.0147 366.581 83.3977C369.196 86.7807 372.818 89.245 376.925 90.4345C385.329 93.1614 394.42 92.8711 402.633 89.6135C410.767 86.1927 417.684 80.4044 422.486 73.0008C427.288 65.5972 429.751 56.9206 429.558 48.0984C429.737 43.5072 428.351 38.9913 425.625 35.2924C422.899 31.5936 418.996 28.9318 414.558 27.7441V27.7441ZM404.422 73.2451C402.872 75.0985 400.949 76.6042 398.777 77.6638C396.606 78.7235 394.235 79.3134 391.821 79.395C383.539 79.6902 379.046 75.3011 379.129 65.7774C379.558 58.1997 382.431 50.965 387.316 45.1567C390.184 41.795 394.182 39.5986 398.557 38.9816C406.838 37.761 412.747 42.3122 412.682 50.6332C412.822 58.933 409.879 66.9897 404.422 73.2451V73.2451Z" fill="#05563F"/>
<path d="M342.23 27.3317C337.463 26.9104 332.635 26.9716 327.828 26.9716H316.793C314.105 26.5789 311.372 27.268 309.192 28.888C307.011 30.508 305.563 32.9265 305.163 35.6131C302.726 43.8945 300.339 52.1759 297.933 60.4574C295.694 68.1555 293.397 75.8356 291.233 83.5553C289.656 89.1219 292.043 92.0095 297.786 91.7647C300.035 91.7192 302.211 90.9541 303.993 89.5816C305.776 88.2091 307.072 86.3015 307.691 84.1386C309.21 79.5046 310.535 74.7986 311.788 70.0962C311.82 69.7571 311.922 69.4282 312.086 69.1302C312.251 68.8323 312.476 68.5716 312.747 68.3647C313.017 68.1577 313.328 68.009 313.658 67.9277C313.989 67.8465 314.333 67.8345 314.669 67.8926C319.383 68.0007 324.102 68.0007 328.826 67.8926C335.191 68.2114 341.452 66.1786 346.416 62.1811C351.38 58.1836 354.701 52.5005 355.747 46.2133C358.116 35.8003 352.877 28.2787 342.23 27.3317ZM340.07 46.775C339.893 48.9419 338.95 50.9747 337.409 52.5084C335.868 54.0421 333.831 54.9762 331.663 55.1429C326.655 55.6001 321.582 55.2437 316.181 55.2437C317.621 50.2712 318.978 45.5004 320.458 40.7692C320.612 40.4473 320.841 40.1673 321.127 39.9529C321.412 39.7385 321.744 39.5961 322.096 39.5378C326.381 39.491 330.677 39.4118 334.947 39.7178C339.217 40.0239 340.877 42.5947 340.077 46.775H340.07Z" fill="#05563F"/>
<path d="M29.0285 68.4522H4.00131C3.39485 68.481 2.79026 68.3648 2.23767 68.1133C1.68507 67.8618 1.20038 67.4822 0.823765 67.0059C0.447155 66.5297 0.189475 65.9706 0.0720855 65.3749C-0.0453039 64.7792 -0.0190216 64.1641 0.148754 63.5805L6.62969 43.8636C6.91307 43.064 7.44306 42.3751 8.14323 41.8962C8.84341 41.4174 9.67758 41.1733 10.5254 41.1991L35.225 41.4656C35.8252 41.4421 36.4224 41.5609 36.968 41.8123C37.5135 42.0636 37.9919 42.4405 38.364 42.912C38.7361 43.3835 38.9915 43.9363 39.1093 44.5253C39.227 45.1143 39.2038 45.7229 39.0416 46.3012L32.9207 65.7445C32.6453 66.5518 32.1192 67.25 31.419 67.7372C30.7188 68.2243 29.8812 68.4748 29.0285 68.4522V68.4522Z" fill="#1A6647"/>
<path d="M175.628 0H82.2662C78.4466 0.0334698 74.7246 1.21033 71.58 3.37884C68.4355 5.54736 66.0126 8.60811 64.6236 12.1665L62.3481 20.2283H103.448C104.147 20.2279 104.837 20.3919 105.461 20.707C106.085 21.0221 106.626 21.4794 107.041 22.0421C107.456 22.6049 107.733 23.2573 107.849 23.9466C107.965 24.636 107.918 25.3431 107.711 26.0108L90.0937 81.9824C89.919 82.5418 89.6358 83.0613 89.2604 83.5112C88.8849 83.9611 88.4245 84.3327 87.9054 84.6047C87.3864 84.8767 86.8188 85.0438 86.2352 85.0964C85.6515 85.1491 85.0633 85.0862 84.5039 84.9115C83.9445 84.7368 83.4251 84.4536 82.9752 84.0781C82.5253 83.7027 82.1537 83.2423 81.8817 82.7232C81.6097 82.2041 81.4427 81.6365 81.39 81.0529C81.3374 80.4692 81.4002 79.8809 81.5749 79.3216L97.3416 29.1974H59.8026L44.4607 83.5091C41.0403 99.3266 51.543 108.789 62.1033 108.789L140.569 109.192C142.559 107.41 144.236 105.307 145.531 102.97C147.634 98.4912 148.519 89.9362 145.005 87.2465C143.017 85.7754 140.593 85.0146 138.121 85.0862H103.448C102.75 85.0825 102.062 84.9156 101.44 84.5987C100.817 84.2819 100.278 83.8239 99.8638 83.2614C99.4499 82.6989 99.1733 82.0474 99.0561 81.3589C98.9389 80.6705 98.9843 79.9642 99.1886 79.2964L116.471 23.3752C116.752 22.4629 117.318 21.6645 118.086 21.097C118.854 20.5294 119.783 20.2225 120.738 20.2211H149.805C152.728 20.2569 155.628 20.7427 158.403 21.6613C167.703 25.0243 175.26 35.8873 171.725 50.1386C169.492 59.1185 162.345 64.9479 151.058 66.9859C146.023 67.8471 140.894 68.001 135.817 67.4431C134.677 67.2492 133.657 66.6212 132.971 65.6909C132.284 64.7606 131.985 63.6005 132.136 62.4544C132.287 61.3082 132.877 60.2652 133.78 59.5444C134.684 58.8237 135.832 58.4813 136.983 58.5892C137.21 58.5892 159.739 61.3653 163.069 47.9854C165.802 36.9963 159.238 31.4586 155.385 30.0651C153.586 29.4938 151.714 29.1858 149.826 29.1506H124.032L109.522 76.1494H138.157C142.591 76.0858 146.922 77.4939 150.471 80.1533C158.46 86.2744 157.135 99.4094 153.625 106.798C153.215 107.65 152.748 108.474 152.228 109.264C151.401 110.711 150.367 112.029 149.16 113.178C147.863 114.613 146.485 115.972 145.034 117.25C165.089 113.65 169.582 102.942 171.44 97.0078L191.855 22.4282C194.826 12.991 186.062 0.11522 175.628 0Z" fill="url(#paint0_linear_11_251)"/>
<path d="M48.7155 30.0091H37.4639C37.1897 30.0241 36.9159 29.9734 36.6652 29.8612C36.4145 29.749 36.1942 29.5786 36.0227 29.3641C35.8512 29.1496 35.7334 28.8972 35.6791 28.628C35.6248 28.3588 35.6355 28.0805 35.7105 27.8163L38.6161 18.9516C38.746 18.5925 38.9856 18.2835 39.301 18.0683C39.6164 17.8531 39.9915 17.7426 40.3732 17.7526L51.4772 17.8678C51.7452 17.8585 52.0118 17.9122 52.2553 18.0247C52.4988 18.1372 52.7125 18.3053 52.8792 18.5155C53.046 18.7256 53.161 18.972 53.2152 19.2347C53.2693 19.4974 53.261 19.7692 53.191 20.0282L50.4546 28.7777C50.3335 29.1413 50.0996 29.4568 49.7868 29.6783C49.4741 29.8998 49.0987 30.0157 48.7155 30.0091Z" fill="#2F724D"/>
<defs>
<linearGradient id="paint0_linear_11_251" x1="51.5809" y1="83.2961" x2="189.637" y2="28.2044" gradientUnits="userSpaceOnUse">
<stop stop-color="#135A42"/>
<stop offset="0.19" stop-color="#266A44"/>
<stop offset="0.58" stop-color="#56944A"/>
<stop offset="1" stop-color="#90C751"/>
</linearGradient>
</defs>
</svg>
